<svg xmlns="http://www.w3.org/2000/svg" width="16" height="16" viewBox="-273 412.9 16 16"><path fill="#FFF" d="M-258.2 417.2h-3.4V416c0-1.7-1.5-3.1-3.3-3.1-1.8 0-3.3 1.4-3.3 3.1v1.2h-3.3c-.8.1-1.4.8-1.3 1.5v.1l1.3 6.9v.1l.3 1.8c0 .7.6 1.2 1.3 1.3h9.9c.7-.1 1.3-.6 1.3-1.3l.4-1.8v-.1l1.3-6.9c.1-.7-.4-1.5-1.2-1.6zm-13.4 1.5c0-.1 0-.2.1-.3h3.3l.2 2.5h-3.1l-.5-2.2zm.6 3.4h2.9l.2 2.5h-2.6l-.5-2.5zm1.1 5.6c0-.1-.1-.1-.1-.2v-.1l-.3-1.6h2.5l.1 1.8h-2.2zm6.3 0h-2.7l-.1-1.8h3l-.2 1.8zm.2-3.1h-3.1l-.2-2.5h3.4l-.1 2.5zm.2-3.7h-3.6l-.2-2.5h3.9l-.1 2.5zm.2-3.7h-4V416c0-1 .9-1.8 2-1.8s2 .8 2 1.8v1.2zm3 10.2c0 .2 0 .2-.1.3h-2.2l.1-1.8h2.5l-.3 1.5zm.5-2.8h-2.6l.2-2.5h2.9l-.5 2.5zm.7-3.7h-3.1l.2-2.5h3.3c.1.1.1.2.1.3l-.5 2.2z"></path></svg>