<svg width="148" height="51" viewBox="0 0 148 51" xmlns="http://www.w3.org/2000/svg"><title>logo</title><g fill-rule="nonzero" fill="none"><path d="M127.8 40.7c-.8-1.4-1.7-2.9-2.5-4.3-.6-1-.3-2.2.7-2.8 2.2-1.4 3.6-3.8 3.6-6.6.1-4.7-4-8.5-8.8-8-3.6.4-6.5 3.2-7.1 6.7-.5 3.2 1 6.1 3.4 7.8.9.6 1.2 1.8.6 2.8-.9 1.4-1.7 2.8-2.6 4.2-5.3-2.5-8.8-8-8.5-14.3.4-7.7 6.6-13.9 14.3-14.3 8.8-.4 15.9 6.6 15.8 15.2-.1 6.1-3.8 11.2-8.9 13.6zm-18.7 9.4c.8-1.3 1.6-2.6 2.5-3.9.6-.9.3-2.1-.6-2.6-5.7-3.7-9.4-10.2-9-17.5.5-10.2 8.8-18.4 19-18.8 11.3-.4 20.5 8.8 20.4 20-.1 7-3.9 13.1-9.5 16.6-.9.6-1.2 1.7-.7 2.7.8 1.3 1.6 2.7 2.4 4 8.5-4.3 14.3-13.1 14.4-23.3.1-14.2-11.2-26-25.4-26.5-14.8-.5-27.1 11.2-27.3 26-.2 9.9 5.4 18.8 13.8 23.3z" fill="#FFFFFF"></path><g fill="#FFFFFF"><path d="M5 12.2H1.7V27h8.8v-2.8H5zM16.4 16c-3.2 0-5.6 2.4-5.6 5.6 0 3.3 2.4 5.7 5.8 5.7 1.8 0 3.4-.6 4.4-1.5l-1-1.5c-.1-.1-.2-.2-.3-.2-.1 0-.3 0-.4.1-.6.4-1.6.7-2.5.7-1.6 0-2.8-.9-3-2.3h7.9v-.7c.1-3.5-2.1-5.9-5.3-5.9zm0 2.4c1.7 0 2.5 1.1 2.6 2.2h-5.1c.1-1.1.8-2.2 2.5-2.2zM28.5 24.6c-.1 0-.2-.1-.3 0-.2.1-.4.1-.6.1-.6 0-.9-.4-.9-1.1v-4.7h2.2v-2.6h-2.2v-2.9l-2.9.7v2.2H22v2.6h1.8v5.5c0 2 1.1 3 3.1 3 1.3 0 2-.4 2.4-.7l-.5-1.7c-.1-.3-.2-.4-.3-.4zM35.1 20.2c-1.1-.2-2-.4-2-.9 0-.6.7-1 1.6-1 1 0 2 .3 2.7.9.1.1.3.1.4.1.1 0 .3-.1.3-.2l.9-1.6c-1.2-1-2.7-1.5-4.3-1.5-1.3 0-2.5.4-3.3 1-.7.6-1.1 1.5-1.1 2.4 0 2.6 2.3 3.1 4.2 3.4 1.2.2 2.1.4 2.1 1.1 0 .7-.6 1.1-1.7 1.1-1.2 0-2.5-.6-3.3-1.2-.1-.1-.3-.1-.4-.1-.1 0-.3.1-.3.2l-1 1.6c1.1 1 2.9 1.7 4.8 1.7 2.9 0 4.7-1.4 4.7-3.5 0-2.6-2.5-3.1-4.3-3.5z"></path><g><path d="M74.6 26.3l-.4-1.5c0-.1-.1-.2-.2-.2s-.2-.1-.3 0c-.2.1-.4.1-.6.1-.6 0-.9-.4-.9-1.1v-4.7h2.2v-2.6h-2.2v-2.9l-2.9.7v2.2h-1.9v2.6h1.8v5.5c0 2 1.1 3 3.1 3 1.2 0 1.8-.3 2.2-.5.1-.2.2-.4.1-.6zM47.9 21.6h3.9v1.7c-.6.5-1.8 1.1-3.1 1.1-2.7 0-4.6-2-4.6-4.8s1.9-4.8 4.6-4.8c1.2 0 2.4.6 3.2 1.6.2.2.4.2.6.1l2.3-1.3v-.1c-1-1.5-2.8-3.3-6.1-3.3-4.6 0-7.9 3.2-7.9 7.7 0 4.4 3.3 7.7 7.9 7.7 2.5 0 4.7-1 6.3-2.8v-5.7h-7.1v2.9zM61.9 16c-3.2 0-5.6 2.4-5.6 5.6 0 3.3 2.4 5.7 5.8 5.7 1.8 0 3.4-.6 4.4-1.5l-1-1.5c-.1-.1-.2-.2-.3-.2-.1 0-.3 0-.4.1-.6.4-1.6.7-2.5.7-1.6 0-2.8-.9-3-2.3h7.9v-.7c.1-3.5-2.1-5.9-5.3-5.9zm-2.6 4.6c.1-1 .9-2.2 2.5-2.2 1.7 0 2.5 1.1 2.6 2.2h-5.1z"></path></g><g><path d="M11.1 39.8c-.7 1.1-1.9 1.8-3.2 1.8-2.7 0-4.6-2-4.6-4.8S5.2 32 7.9 32c1.3 0 2.5.7 3.2 1.8.1.2.4.3.6.2l2.4-1.2v-.1c-.9-1.7-2.8-3.6-6.2-3.6-4.6 0-7.9 3.2-7.9 7.7 0 4.4 3.3 7.7 7.9 7.7 3.4 0 5.2-2 6.2-3.7v-.1l-2.4-1.2c-.2 0-.5.1-.6.3zM22.2 33.2c-2 0-3.2 1.1-3.7 1.5v-5.3h-2.9v14.8h2.9V37c.2-.3 1-1.2 2.4-1.2 1.3 0 1.9.6 1.9 1.9v6.6h2.9v-7.6c0-2.3-1.3-3.5-3.5-3.5zM32.4 33.2c-3.2 0-5.6 2.4-5.6 5.6 0 3.3 2.4 5.7 5.8 5.7 1.8 0 3.4-.6 4.4-1.5l-1-1.5c-.1-.1-.2-.2-.3-.2-.1 0-.3 0-.4.1-.6.4-1.6.7-2.5.7-1.6 0-2.8-.9-3-2.3h7.9v-.7c.1-3.5-2.1-5.9-5.3-5.9zm2.6 4.6h-5.1c.1-1 .9-2.2 2.5-2.2 1.7 0 2.4 1.1 2.6 2.2zM44.5 35.8c.8 0 1.4.3 1.9.8.1.1.2.1.3.2.1 0 .3 0 .4-.1l1.5-1.4c-.5-.7-1.8-1.9-4.2-1.9-3.1 0-5.7 2.5-5.7 5.5 0 1.6.5 3.1 1.6 4.1 1 1.1 2.5 1.6 4.2 1.6 2.5 0 3.7-1.2 4.3-2l-1.5-1.4c-.2-.2-.5-.2-.7 0-.5.5-1.2.8-1.9.8-1.7 0-2.8-1.3-2.8-3.1-.2-1.9.9-3.1 2.6-3.1zM56.1 38.2l4.1-4.7h-3.6l-4 4.6v-8.7h-2.9v14.8h2.9v-2.8l1.2-1.3 2.8 4h3.7L56 38.4s0-.1.1-.2z"></path><path d="M65.6 33.2c-3.2 0-5.6 2.4-5.6 5.6 0 3.3 2.4 5.7 5.8 5.7 1.8 0 3.4-.6 4.4-1.5l-1-1.5c-.1-.1-.2-.2-.3-.2-.1 0-.3 0-.4.1-.6.4-1.6.7-2.5.7-1.6 0-2.8-.9-3-2.3h7.9v-.7c.1-3.5-2.1-5.9-5.3-5.9zM63 37.8c.1-1 .9-2.2 2.5-2.2 1.7 0 2.5 1.1 2.6 2.2H63zM79.9 29.4v5.3c-.8-1-1.9-1.5-3.2-1.5-2.9 0-4.8 2.3-4.8 5.6 0 3.4 1.9 5.7 4.8 5.7 1.3 0 2.4-.5 3.2-1.5v1.3h2.9V29.4h-2.9zm0 7.6v3.7c-.5.7-1.4 1.2-2.3 1.2-1.6 0-2.7-1.2-2.7-3.1 0-1.8 1.1-3 2.7-3 .8 0 1.8.5 2.3 1.2z"></path></g></g></g></svg>