<svg xmlns="http://www.w3.org/2000/svg" viewBox="0 0 32 32"><defs><style>.cls-1,.cls-2{fill:#00bbdc;}.cls-1{opacity:0.5;}</style></defs><title>LGC_Icons_Sexual_01_symptoms</title><g id="_01_1Col" data-name="01_1Col"><path class="cls-1" d="M23.63,27.12a13.62,13.62,0,1,1,3.09-3l.32.34.37.4a14.51,14.51,0,1,0-3.1,3Z"/><path class="cls-2" d="M28.71,29.37a1.14,1.14,0,0,1-1.61,0l-4.8-5.07a1.14,1.14,0,0,1,0-1.57c1.47-1.54,4.5-5.47,1.94-10.38-2-3.8-5.31-5.58-8.76-5.36a9.13,9.13,0,0,0-2.94,17.57,1.13,1.13,0,0,1,.64,1.36L12.84,27a11.41,11.41,0,1,1,11.84-3.58l4.07,4.31a1.14,1.14,0,0,1,0,1.61Z"/><circle class="cls-2" cx="18.73" cy="16" r="1.5"/><circle class="cls-1" cx="16" cy="9.88" r="1.5"/><circle class="cls-1" cx="20.23" cy="12.46" r="1.5"/><circle class="cls-1" cx="11.13" cy="12.88" r="1.5"/><circle class="cls-1" cx="14.65" cy="15" r="1.5"/><circle class="cls-1" cx="20.5" cy="20.5" r="1.5"/><circle class="cls-1" cx="22.5" cy="16.5" r="1.5"/><circle class="cls-1" cx="16.5" cy="23.5" r="1.5"/><circle class="cls-1" cx="10.07" cy="18" r="1.5"/><circle class="cls-2" cx="14.13" cy="19.5" r="1.5"/></g></svg>