<svg xmlns="http://www.w3.org/2000/svg" viewBox="0 0 32 32"><defs><style>.cls-1{fill:#00bbdc;}.cls-2{opacity:0.5;}.cls-3,.cls-4,.cls-5,.cls-6,.cls-7{fill:none;stroke:#00bbdc;stroke-linecap:round;stroke-width:2px;}.cls-3,.cls-4{stroke-miterlimit:10;}.cls-4{stroke-dasharray:0 3;}.cls-5,.cls-6,.cls-7{stroke-linejoin:round;}.cls-6{stroke-dasharray:0 3.2;}.cls-7{stroke-dasharray:0 4;}</style></defs><title>LGC_Icons_Sexual_02_infertility</title><g id="_01_1Col" data-name="01_1Col"><path class="cls-1" d="M9,18a4,4,0,1,1-4,4,4,4,0,0,1,4-4m0-2a6,6,0,1,0,6,6,6,6,0,0,0-6-6Z"/><g class="cls-2"><line class="cls-3" x1="9" y1="17" x2="9" y2="17"/><line class="cls-4" x1="9" y1="14" x2="9" y2="6.5"/><line class="cls-3" x1="9" y1="5" x2="9" y2="5"/><line class="cls-5" x1="4" y1="9" x2="4" y2="9"/><line class="cls-6" x1="6.5" y1="7" x2="7.75" y2="6"/><line class="cls-5" x1="9" y1="5" x2="9" y2="5"/><line class="cls-6" x1="11.5" y1="7" x2="12.75" y2="8"/><line class="cls-5" x1="14" y1="9" x2="14" y2="9"/></g><path class="cls-1" d="M24,6a4,4,0,1,1-4,4,4,4,0,0,1,4-4m0-2a6,6,0,1,0,6,6,6,6,0,0,0-6-6Z"/><g class="cls-2"><line class="cls-3" x1="24" y1="15" x2="24" y2="15"/><line class="cls-4" x1="24" y1="18" x2="24" y2="25.5"/><line class="cls-3" x1="24" y1="27" x2="24" y2="27"/><line class="cls-5" x1="28" y1="24" x2="28" y2="24"/><line class="cls-7" x1="24" y1="24" x2="23" y2="24"/><line class="cls-5" x1="20" y1="24" x2="20" y2="24"/></g></g></svg>