<?xml version="1.0" encoding="UTF-8" standalone="no"?>
<svg width="87px" height="32px" viewBox="0 0 87 32" version="1.1" xmlns="http://www.w3.org/2000/svg" xmlns:xlink="http://www.w3.org/1999/xlink">
    <!-- Generator: Sketch 43.1 (39012) - http://www.bohemiancoding.com/sketch -->
    <title>Group 2</title>
    <desc>Created with Sketch.</desc>
    <defs></defs>
    <g id="Symbols" stroke="none" stroke-width="1" fill="none" fill-rule="evenodd">
        <g id="footer/Desktop" transform="translate(-176.000000, -484.000000)" fill-rule="nonzero" fill="#FFFFFF">
            <g id="footer-PP-Logo" transform="translate(176.000000, 484.000000)">
                <g id="footer-logo_PrivaPath">
                    <g id="Vrstva_1">
                        <g id="Group-2">
                            <path d="M0,12.3345455 L0.64969697,12.1987879 C1.11515152,12.1018182 1.28,12.0242424 1.28,11.0836364 L1.28,3.09333333 C1.28,2.12363636 1.16363636,2.12363636 0.795151515,1.99757576 L0,1.8230303 L0,1.25090909 L5.19757576,1.25090909 C8.10666667,1.25090909 9.6969697,2.47272727 9.6969697,4.73212121 C9.72057991,5.71494944 9.34523581,6.66545938 8.65649436,7.36698913 C7.96775291,8.06851888 7.02430837,8.46128439 6.04121212,8.45575758 C5.59086679,8.47901695 5.14161433,8.39249425 4.73212121,8.20363636 L4.73212121,7.62181818 C6.39030303,7.66060606 7.17575758,7.10787879 7.17575758,4.84848485 C7.17575758,2.82181818 6.59393939,2.05575758 5.05212121,2.05575758 C4.60948766,2.04285062 4.16686781,2.08190531 3.73333333,2.17212121 L3.73333333,11.0739394 C3.73333333,11.9854545 3.80121212,12.0436364 4.37333333,12.169697 L5.24606061,12.3248485 L5.24606061,12.9357576 L0,12.9357576 L0,12.3345455 Z" id="Shape"></path>
                            <path d="M10.5212121,12.3539394 L11.1030303,12.1987879 C11.5587879,12.0824242 11.6363636,11.9757576 11.6363636,11.2290909 L11.6363636,6.25454545 C11.7295706,5.84292506 11.5005691,5.42655873 11.1030303,5.28484848 L10.5018182,4.84848485 L10.5018182,4.39272727 L13.6339394,4.02424242 L13.8375758,4.16969697 L13.7406061,5.23636364 L13.8084848,5.23636364 C14.4742649,4.53170773 15.3740563,4.09387818 16.3393939,4.00484848 C16.6618308,3.96553331 16.9847781,4.07393156 17.2181979,4.29982174 C17.4516178,4.52571193 17.5705434,4.84493258 17.5418182,5.16848485 C17.5919155,5.46720064 17.499557,5.77216733 17.2921467,5.99289756 C17.0847364,6.21362778 16.7861007,6.32476496 16.4848485,6.29333333 C16.0002345,6.37975219 15.5194209,6.12331826 15.3212121,5.67272727 C15.2464568,5.51168472 15.0815807,5.41199224 14.9042424,5.42060606 C14.4933132,5.50706431 14.120081,5.72082455 13.8375758,6.03151515 L13.8375758,11.2775758 C13.8375758,12.0339394 13.9248485,12.150303 14.3418182,12.2472727 L15.0593939,12.4024242 L15.0593939,12.9842424 L10.5212121,12.9842424 L10.5212121,12.4024242 L10.5212121,12.3539394 Z" id="Shape"></path>
                            <path d="M18.1042424,12.3539394 L18.6860606,12.1987879 C19.1418182,12.0824242 19.2193939,11.9757576 19.2193939,11.2290909 L19.2193939,6.25454545 C19.3126009,5.84292506 19.0835994,5.42655873 18.6860606,5.28484848 L18.0848485,4.84848485 L18.0848485,4.39272727 L21.3333333,4.02424242 L21.5466667,4.16 C21.4565205,4.88378252 21.4111816,5.61244353 21.4109091,6.34181818 L21.4109091,11.2678788 C21.4109091,12.0145455 21.4981818,12.0921212 21.9442424,12.2375758 L22.5260606,12.3927273 L22.5260606,12.9745455 L18.1042424,12.9745455 L18.1042424,12.3539394 Z M18.870303,1.45454545 C18.8396167,0.897927051 19.1475684,0.377724375 19.6503292,0.136898119 C20.15309,-0.103928137 20.7514517,-0.0178564868 21.1659494,0.354913299 C21.5804472,0.727683085 21.7292894,1.31359352 21.5429594,1.8389951 C21.3566294,2.36439668 20.871895,2.72561357 20.3151515,2.75393939 L20.2569697,2.75393939 C19.9003712,2.76701137 19.5533213,2.63711772 19.2929379,2.39312211 C19.0325545,2.14912651 18.8804066,1.81124038 18.870303,1.45454545 L18.870303,1.45454545 L18.870303,1.45454545 Z" id="Shape"></path>
                            <path d="M24.1260606,6.18666667 C23.7769697,5.3430303 23.6412121,5.11030303 23.1563636,4.95515152 L22.7878788,4.84848485 L22.7878788,4.2569697 L27.2581818,4.2569697 L27.2581818,4.84848485 L26.8024242,4.96484848 C26.6515627,4.97145788 26.5105741,5.04170986 26.4144488,5.15816936 C26.3183235,5.27462886 26.2760726,5.42637863 26.2981818,5.57575758 C26.332554,5.88275686 26.4109333,6.18321089 26.5309091,6.46787879 L28.1212121,10.6666667 L28.1212121,10.6666667 L29.5854545,6.47757576 C29.7098006,6.1688248 29.7787346,5.84056759 29.7890909,5.50787879 C29.8233086,5.22152573 29.6195492,4.96140735 29.3333333,4.92606061 L29.3333333,4.92606061 L28.8678788,4.84848485 L28.8678788,4.24727273 L32.0678788,4.24727273 L32.0678788,4.84848485 L31.6606061,4.96484848 C31.2048485,5.08121212 31.0787879,5.40121212 30.6909091,6.36121212 L28.1212121,12.9357576 L26.870303,12.9357576 L24.1260606,6.18666667 Z" id="Shape"></path>
                            <path d="M32.0484848,10.8993939 C32.0484848,9.45454545 33.0181818,8.71757576 35.3163636,8.16484848 L36.9357576,7.75757576 L36.9357576,6.39030303 C36.9357576,5.12 36.7224242,4.75151515 35.510303,4.75151515 C34.870303,4.75151515 34.7927273,4.88727273 34.7248485,5.39151515 C34.6375758,6.26424242 34.3369697,6.72969697 33.5030303,6.72969697 C33.2313434,6.76981729 32.9563194,6.68256767 32.757447,6.49316546 C32.5585747,6.30376326 32.458021,6.03331974 32.4848485,5.76 C32.4848485,4.62545455 34.0751515,4.00484848 35.9854545,4.00484848 C38.0606061,4.00484848 39.1466667,4.69333333 39.1466667,6.25454545 L39.1466667,10.9866667 C39.0520694,11.3717634 39.2320711,11.7717673 39.5830303,11.9563636 C39.8346098,12.0738618 40.1103635,12.1303415 40.3878788,12.1212121 L40.3878788,12.6642424 C39.8645839,12.9989794 39.2538032,13.1710779 38.6327273,13.1587879 C37.9313468,13.2720595 37.2507653,12.8620707 37.0230303,12.1890909 L36.9551515,12.1890909 C36.3648733,12.8518974 35.5043092,13.208978 34.6181818,13.1587879 C33.0375758,13.1490909 32.0484848,12.3345455 32.0484848,10.8993939 Z M36.8969697,11.3745455 L36.8969697,8.72727273 L35.8787879,8.83393939 C35.3991641,8.79781186 34.930157,8.98758309 34.6106096,9.34707386 C34.2910623,9.70656462 34.1575868,10.1945863 34.249697,10.6666667 C34.1850811,11.0436642 34.3067234,11.4286402 34.5762239,11.7000657 C34.8457244,11.9714912 35.2298249,12.0958704 35.6072727,12.0339394 C36.1326437,12.0711215 36.6395357,11.832368 36.9454545,11.4036364 L36.9454545,11.4036364 L36.8969697,11.3745455 Z" id="Shape"></path>
                            <path d="M41.5612121,12.3345455 L42.2109091,12.1987879 C42.6763636,12.1018182 42.8315152,12.0145455 42.8315152,11.0836364 L42.8315152,3.09333333 C42.8315152,2.12363636 42.7151515,2.12363636 42.3466667,1.99757576 L41.5612121,1.83272727 L41.5612121,1.25090909 L46.7587879,1.25090909 C49.6678788,1.25090909 51.2581818,2.47272727 51.2581818,4.73212121 C51.2845238,5.71830257 50.9090481,6.67286369 50.2178928,7.37681817 C49.5267375,8.08077265 48.5792259,8.47369856 47.5927273,8.46545455 C47.1423819,8.48871392 46.6931295,8.40219122 46.2836364,8.21333333 L46.2836364,7.62181818 C47.9418182,7.62181818 48.7272727,7.09818182 48.7272727,4.84848485 C48.7272727,2.82181818 48.1454545,2.05575758 46.6036364,2.05575758 C46.1610028,2.04285062 45.718383,2.08190531 45.2848485,2.17212121 L45.2848485,11.0739394 C45.2848485,11.9854545 45.3527273,12.0436364 45.9248485,12.169697 L46.7975758,12.3248485 L46.7975758,12.9357576 L41.5612121,12.9357576 L41.5612121,12.3345455 Z" id="Shape"></path>
                            <path d="M51.2484848,10.8993939 C51.2484848,9.45454545 52.2181818,8.71757576 54.5163636,8.16484848 L56.1357576,7.75757576 L56.1357576,6.39030303 C56.1357576,5.12 55.9224242,4.75151515 54.710303,4.75151515 C54.070303,4.75151515 53.9927273,4.88727273 53.9248485,5.39151515 C53.8375758,6.26424242 53.5369697,6.72969697 52.7030303,6.72969697 C52.4313434,6.76981729 52.1563194,6.68256767 51.957447,6.49316546 C51.7585747,6.30376326 51.658021,6.03331974 51.6848485,5.76 C51.6848485,4.62545455 53.2751515,4.00484848 55.1854545,4.00484848 C57.2606061,4.00484848 58.3466667,4.69333333 58.3466667,6.25454545 L58.3466667,10.9866667 C58.2520694,11.3717634 58.4320711,11.7717673 58.7830303,11.9563636 C59.0346098,12.0738618 59.3103635,12.1303415 59.5878788,12.1212121 L59.5878788,12.6642424 C59.0645839,12.9989794 58.4538032,13.1710779 57.8327273,13.1587879 C57.1313468,13.2720595 56.4507653,12.8620707 56.2230303,12.1890909 L56.1551515,12.1890909 C55.5648733,12.8518974 54.7043092,13.208978 53.8181818,13.1587879 C52.2375758,13.1490909 51.2484848,12.3345455 51.2484848,10.8993939 Z M56.0969697,11.3745455 L56.0969697,8.72727273 L55.0593939,8.82424242 C54.5793472,8.79055859 54.1111027,8.98294576 53.7934052,9.34439806 C53.4757076,9.70585036 53.3449955,10.1949107 53.44,10.6666667 C53.3753841,11.0436642 53.4970264,11.4286402 53.7665269,11.7000657 C54.0360274,11.9714912 54.4201279,12.0958704 54.7975758,12.0339394 C55.3285372,12.0646655 55.836628,11.8143019 56.1357576,11.3745455 L56.0969697,11.3745455 Z" id="Shape"></path>
                            <path d="M60.3442424,11.0836364 L60.3442424,5.26545455 L59.2290909,5.26545455 L59.2290909,4.78060606 C60.448188,4.35513242 61.3588085,3.32701252 61.6339394,2.06545455 L62.6036364,2.06545455 L62.6036364,4.2569697 L64.969697,4.2569697 L64.7175758,5.32363636 L62.5842424,5.32363636 L62.5842424,10.8315152 C62.5312684,11.1441074 62.6344531,11.4628544 62.8605649,11.6851011 C63.0866768,11.9073478 63.4071554,12.0050219 63.7187879,11.9466667 C64.1423133,11.9282026 64.5621832,11.8598517 64.969697,11.7430303 L64.969697,12.3539394 C64.2868588,12.9286994 63.4065327,13.2140225 62.5163636,13.1490909 C61.9403399,13.2202689 61.3627154,13.0297194 60.9421099,12.6297686 C60.5215044,12.2298178 60.3021351,11.6625117 60.3442424,11.0836364 L60.3442424,11.0836364 Z" id="Shape"></path>
                            <path d="M65.4836364,12.3539394 L66.0654545,12.1987879 C66.5212121,12.0824242 66.5987879,11.9757576 66.5987879,11.2290909 L66.5987879,2.20121212 C66.5987879,1.45454545 66.5115152,1.38666667 66.0848485,1.17333333 L65.3963636,0.853333333 L65.3963636,0.300606061 L68.7321212,0 L68.9454545,0.164848485 C68.8525833,0.807096348 68.8072077,1.45531933 68.809697,2.10424242 L68.809697,3.55878788 C68.8071918,4.08356322 68.7780635,4.60787353 68.7224242,5.12969697 L68.790303,5.12969697 C69.7415731,4.46679857 70.8611427,4.08688455 72.0193939,4.03393939 C72.64808,3.9115781 73.2966373,4.10750113 73.7524271,4.55747233 C74.2082168,5.00744353 74.412456,5.65343019 74.2981818,6.28363636 L74.2981818,11.2775758 C74.2981818,11.9854545 74.3951515,12.1018182 74.8315152,12.2472727 L75.3842424,12.4024242 L75.3842424,12.9842424 L71.049697,12.9842424 L71.049697,12.4024242 L71.6024242,12.2666667 C72.0193939,12.150303 72.0872727,12.0824242 72.0872727,11.2969697 L72.0872727,6.89454545 C72.0775758,5.81818182 71.7575758,5.39151515 70.7878788,5.39151515 C70.1239937,5.43789649 69.4705383,5.5816567 68.8484848,5.81818182 L68.8484848,11.2969697 C68.8484848,12.0727273 68.9163636,12.1212121 69.3333333,12.2666667 L69.9054545,12.4024242 L69.9054545,12.9842424 L65.4933333,12.9842424 L65.4933333,12.4024242 L65.4836364,12.3539394 Z" id="Shape"></path>
                            <path d="M1.09575758,27.7333333 L1.09575758,16.4848485 L4.97454545,16.4848485 C6.51282704,16.3886644 8.020474,16.9448712 9.12771792,18.0170524 C10.2349618,19.0892336 10.8393784,20.5782084 10.7927273,22.1187879 C10.8368307,23.6569345 10.2309159,25.1424973 9.12363008,26.2110282 C8.01634422,27.279559 6.5101458,27.8321854 4.97454545,27.7333333 L1.09575758,27.7333333 L1.09575758,27.7333333 Z M9.30909091,22.1187879 C9.38592239,20.9413044 8.95434465,19.7873676 8.12368404,18.9492904 C7.29302342,18.1112131 6.14296841,17.6693954 4.96484848,17.7357576 L2.51151515,17.7357576 L2.51151515,26.4630303 L4.97454545,26.4630303 C6.14737204,26.5225719 7.29031754,26.0813014 8.11884774,25.2490724 C8.94737794,24.4168434 9.38355298,23.2719437 9.31878788,22.0993939 L9.31878788,22.0993939 L9.30909091,22.1187879 Z" id="Shape"></path>
                            <path d="M12.7127273,17.5806061 C12.7127273,17.0986121 13.1034606,16.7078788 13.5854545,16.7078788 C14.0567375,16.7078788 14.4387879,17.0899291 14.4387879,17.5612121 L14.4387879,17.5612121 C14.447008,17.7925241 14.3587243,18.0168478 14.1950588,18.1805133 C14.0313932,18.3441788 13.8070696,18.4324626 13.5757576,18.4242424 L13.5757576,18.4242424 C13.108105,18.4351414 12.7188503,18.067512 12.7030303,17.6 L12.7030303,17.6 L12.7127273,17.5806061 Z M12.9357576,27.7333333 L12.9357576,19.5878788 L14.2060606,19.5878788 L14.2060606,27.7333333 L12.9357576,27.7333333 Z" id="Shape"></path>
                            <path d="M22.6909091,27.7333333 L22.6909091,26.5212121 C22.0459105,27.404193 21.0207172,27.9293798 19.9272727,27.9369697 C17.7842424,27.9369697 16.2812121,26.3175758 16.2812121,23.670303 C16.2812121,21.0230303 17.7939394,19.3939394 19.9272727,19.3939394 C21.0249635,19.4029239 22.0521553,19.9363428 22.6909091,20.8290909 L22.6909091,19.5878788 L23.9709091,19.5878788 L23.9709091,27.7333333 L22.6909091,27.7333333 Z M22.6909091,25.5127273 L22.6909091,21.8278788 C22.1337643,21.0245136 21.2247462,20.5375396 20.2472727,20.5187879 C18.5793939,20.5187879 17.6,21.8666667 17.6,23.670303 C17.6,25.4739394 18.569697,26.8121212 20.2569697,26.8121212 C21.2318292,26.7934541 22.1379411,26.3061031 22.6909091,25.5030303 L22.6909091,25.5127273 Z" id="Shape"></path>
                            <path d="M26.5018182,29.7987879 L27.1515152,28.8872727 C27.8143216,29.6575455 28.8052871,30.0647422 29.8181818,29.9830303 C31.1757576,29.9830303 32.4654545,29.3236364 32.4654545,27.6072727 L32.4654545,26.3757576 C31.8235428,27.2661351 30.7992981,27.8016174 29.7018182,27.8206061 C27.5587879,27.8206061 26.0557576,26.230303 26.0557576,23.6024242 C26.0557576,20.9745455 27.529697,19.3939394 29.6921212,19.3939394 C30.7898119,19.4029239 31.8170038,19.9363428 32.4557576,20.8290909 L32.4557576,19.5878788 L33.7357576,19.5878788 L33.7357576,27.6072727 C33.7357576,30.1866667 31.7963636,31.030303 29.8569697,31.030303 C28.6107971,31.1414206 27.3801856,30.6897222 26.5018182,29.7987879 L26.5018182,29.7987879 Z M32.4557576,25.3769697 L32.4557576,21.8181818 C31.8901748,21.0256687 30.9854128,20.5445651 30.0121212,20.5187879 C28.3442424,20.5187879 27.3648485,21.8181818 27.3648485,23.6218182 C27.3648485,25.4254545 28.3345455,26.7054545 30.0121212,26.7054545 C30.9901192,26.679771 31.897487,26.1900804 32.4557576,25.3866667 L32.4557576,25.3866667 L32.4557576,25.3769697 Z" id="Shape"></path>
                            <path d="M41.8230303,27.7333333 L41.8230303,22.4 C41.9134557,21.8830743 41.7493298,21.3542414 41.3821228,20.9793442 C41.0149158,20.604447 40.4895976,20.4293973 39.9709091,20.5090909 C39.0150284,20.5458279 38.1257103,21.0082733 37.5466667,21.769697 L37.5466667,27.7333333 L36.2763636,27.7333333 L36.2763636,19.5878788 L37.5466667,19.5878788 L37.5466667,20.7709091 C38.2801383,19.9226788 39.3349521,19.4198843 40.4557576,19.3842424 C41.1753408,19.288747 41.8980992,19.5359163 42.4085177,20.0520484 C42.9189362,20.5681806 43.158045,21.2936456 43.0545455,22.0121212 L43.0545455,27.7236364 L41.8230303,27.7236364 L41.8230303,27.7333333 Z" id="Shape"></path>
                            <path d="M45.1684848,23.6509091 C45.0952774,22.1537315 45.8523529,20.7378637 47.138118,19.9673393 C48.4238832,19.1968149 50.0294501,19.1968149 51.3152153,19.9673393 C52.6009805,20.7378637 53.3580559,22.1537315 53.2848485,23.6509091 C53.3580559,25.1480867 52.6009805,26.5639545 51.3152153,27.3344789 C50.0294501,28.1050033 48.4238832,28.1050033 47.138118,27.3344789 C45.8523529,26.5639545 45.0952774,25.1480867 45.1684848,23.6509091 L45.1684848,23.6509091 Z M51.9563636,23.6509091 C51.9563636,22.0024242 50.9866667,20.5187879 49.2412121,20.5187879 C47.4957576,20.5187879 46.5454545,22.0024242 46.5454545,23.6509091 C46.5454545,25.2993939 47.5151515,26.8024242 49.2606061,26.8024242 C51.0060606,26.8024242 51.9369697,25.3187879 51.9369697,23.6509091 L51.9563636,23.6509091 Z" id="Shape"></path>
                            <path d="M54.6521212,26.6472727 L55.2727273,25.7357576 C55.974002,26.4764969 56.9484477,26.8971209 57.9684848,26.8993939 C59.2193939,26.8993939 59.9078788,26.3175758 59.9078788,25.5030303 C59.9078788,23.5636364 54.8363636,24.7466667 54.8363636,21.7309091 C54.8363636,20.4509091 55.9224242,19.3842424 57.8715152,19.3842424 C59.00316,19.3427159 60.101626,19.770872 60.9066667,20.5672727 L60.3248485,21.44 C59.7165134,20.7504505 58.8395202,20.3579254 57.92,20.3636364 C56.7951515,20.3636364 56.1066667,20.9163636 56.1066667,21.6436364 C56.1066667,23.4181818 61.1781818,22.2545455 61.1781818,25.4157576 C61.1781818,26.7830303 60.0824242,27.8787879 57.9684848,27.8787879 C56.7389235,27.9536637 55.534801,27.5065188 54.6521212,26.6472727 Z" id="Shape"></path>
                            <path d="M63.5054545,26.0266667 L63.5054545,20.7030303 L62.1478788,20.7030303 L62.1478788,19.5878788 L63.5054545,19.5878788 L63.5054545,17.3672727 L64.7951515,17.3672727 L64.7951515,19.5878788 L66.4630303,19.5878788 L66.4630303,20.7030303 L64.7951515,20.7030303 L64.7951515,25.7648485 C64.7438437,26.0148112 64.804504,26.274708 64.9611658,26.4761303 C65.1178276,26.6775526 65.3547958,26.800321 65.609697,26.8121212 C65.9357188,26.8178804 66.2503114,26.6920434 66.4824242,26.4630303 L66.8606061,27.4327273 C66.44669,27.8025643 65.90186,27.9911592 65.3478788,27.9563636 C64.8277575,28.0142312 64.310427,27.8260564 63.9490348,27.4475456 C63.5876425,27.0690348 63.4235945,26.5435552 63.5054545,26.0266667 L63.5054545,26.0266667 Z" id="Shape"></path>
                            <path d="M68.0145455,17.5806061 C68.0145455,17.0986121 68.4052788,16.7078788 68.8872727,16.7078788 C69.3585557,16.7078788 69.7406061,17.0899291 69.7406061,17.5612121 L69.7406061,17.5612121 C69.7431975,17.7840619 69.6564817,17.9986774 69.4998059,18.1571749 C69.3431302,18.3156725 69.1295316,18.4048636 68.9066667,18.4048485 L68.9066667,18.4048485 C68.4390141,18.4157474 68.0497594,18.048118 68.0339394,17.5806061 L68.0339394,17.5806061 L68.0145455,17.5806061 Z M68.2375758,27.7333333 L68.2375758,19.5878788 L69.5078788,19.5878788 L69.5078788,27.7333333 L68.2375758,27.7333333 Z" id="Shape"></path>
                            <path d="M71.2921212,23.6509091 C71.2301976,22.5344739 71.6344454,21.4424198 72.4083797,20.6353958 C73.1823139,19.8283717 74.256497,19.3787841 75.3745455,19.3939394 C76.5506169,19.3317074 77.6795254,19.8633869 78.3806061,20.809697 L77.5757576,21.5660606 C77.106772,20.8821001 76.319594,20.4866804 75.4909091,20.5187879 C74.6868324,20.5203364 73.9207977,20.8613648 73.3815728,21.4578362 C72.8423479,22.0543076 72.5800786,22.8507524 72.6593939,23.6509091 C72.5894234,24.4534392 72.855366,25.2490543 73.3938608,25.8481986 C73.9323555,26.4473429 74.6951855,26.796369 75.5006061,26.8121212 C76.3267289,26.8240495 77.1046464,26.4241853 77.5757576,25.7454545 L78.4290909,26.5212121 C77.7280102,27.4675222 76.5991017,27.9992017 75.4230303,27.9369697 C74.2939312,27.9575491 73.2072043,27.5072804 72.4235306,26.6941729 C71.6398569,25.8810655 71.2299442,24.7784827 71.2921212,23.6509091 L71.2921212,23.6509091 Z" id="Shape"></path>
                            <path d="M79.7769697,26.6472727 L80.4266667,25.7357576 C81.1279414,26.4764969 82.1023871,26.8971209 83.1224242,26.8993939 C84.3733333,26.8993939 85.0618182,26.3175758 85.0618182,25.5030303 C85.0618182,23.5636364 79.990303,24.7466667 79.990303,21.7309091 C79.990303,20.4509091 81.0763636,19.3842424 83.0254545,19.3842424 C84.1570994,19.3427159 85.2555654,19.770872 86.0606061,20.5672727 L85.4787879,21.44 C84.8637904,20.7427164 83.9744854,20.3494381 83.0448485,20.3636364 C81.92,20.3636364 81.2315152,20.9163636 81.2315152,21.6436364 C81.2315152,23.4181818 86.3030303,22.2545455 86.3030303,25.4157576 C86.3030303,26.7830303 85.2072727,27.8787879 83.0933333,27.8787879 C81.863772,27.9536637 80.6596495,27.5065188 79.7769697,26.6472727 Z" id="Shape"></path>
                        </g>
                    </g>
                </g>
            </g>
        </g>
    </g>
</svg>