<svg xmlns="http://www.w3.org/2000/svg" viewBox="0 0 32 32"><defs><style>.cls-1,.cls-2{fill:#00bbdc;}.cls-2{opacity:0.5;}</style></defs><title>LGC_Icons_Sexual_03_protect</title><g id="_01_1Col" data-name="01_1Col"><path class="cls-1" d="M14.37,2.09A14,14,0,0,0,9.94,28.6l1-1.74a2,2,0,0,0-.6-2.63,10,10,0,1,1,11.3,0,2,2,0,0,0-.57,2.61l1,1.74A14,14,0,0,0,14.37,2.09Z"/><path class="cls-2" d="M19,11.5h-.25C16.8,11.51,16,14,16,14s-.8-2.53-2.76-2.53H13a2.72,2.72,0,0,0-3,2.86c0,2.5,3.7,6,5.29,7.81a.94.94,0,0,0,1.42,0C18.3,20.39,22,16.86,22,14.36A2.72,2.72,0,0,0,19,11.5Zm-1,6.7a.56.56,0,0,1-.57.51h-.86v.86a.54.54,0,0,1-.57.57h-.06a.54.54,0,0,1-.51-.57v-.86h-.92a.56.56,0,0,1-.52-.57v-.06a.56.56,0,0,1,.57-.51h.86v-.86a.53.53,0,0,1,0-.06.54.54,0,0,1,.57-.51h.06a.54.54,0,0,1,.51.57v.86h.91a.56.56,0,0,1,.52.57Z"/></g></svg>